<svg width="20" height="20" viewBox="0 0 20 20" fill="none" xmlns="http://www.w3.org/2000/svg">
<path d="M6.66667 6.66663V4.33329C6.66667 3.39987 6.66667 2.93316 6.84833 2.57664C7.00812 2.26304 7.26308 2.00807 7.57669 1.84828C7.93321 1.66663 8.39992 1.66663 9.33334 1.66663H15.6667C16.6001 1.66663 17.0668 1.66663 17.4233 1.84828C17.7369 2.00807 17.9919 2.26304 18.1517 2.57664C18.3333 2.93316 18.3333 3.39987 18.3333 4.33329V10.6666C18.3333 11.6 18.3333 12.0668 18.1517 12.4233C17.9919 12.7369 17.7369 12.9918 17.4233 13.1516C17.0668 13.3333 16.6001 13.3333 15.6667 13.3333H13.3333M4.33334 18.3333H10.6667C11.6001 18.3333 12.0668 18.3333 12.4233 18.1516C12.7369 17.9918 12.9919 17.7369 13.1517 17.4233C13.3333 17.0668 13.3333 16.6 13.3333 15.6666V9.33329C13.3333 8.39987 13.3333 7.93316 13.1517 7.57664C12.9919 7.26304 12.7369 7.00807 12.4233 6.84828C12.0668 6.66663 11.6001 6.66663 10.6667 6.66663H4.33334C3.39992 6.66663 2.93321 6.66663 2.57669 6.84828C2.26308 7.00807 2.00812 7.26304 1.84833 7.57664C1.66667 7.93316 1.66667 8.39987 1.66667 9.33329V15.6666C1.66667 16.6 1.66667 17.0668 1.84833 17.4233C2.00812 17.7369 2.26308 17.9918 2.57669 18.1516C2.93321 18.3333 3.39992 18.3333 4.33334 18.3333Z" stroke="#053628" stroke-width="1.67" stroke-linecap="round" stroke-linejoin="round"/>
</svg>
