<svg width="24" height="24" viewBox="0 0 24 24" fill="none" xmlns="http://www.w3.org/2000/svg">
<path d="M7.19995 1.5H18.66C19.6731 1.5 20.6447 1.90246 21.3611 2.61885C22.0775 3.33524 22.48 4.30687 22.48 5.32C22.48 6.33313 22.0775 7.30476 21.3611 8.02115C20.6447 8.73754 19.6731 9.14 18.66 9.14H7.19995V1.5Z" stroke="#976837" stroke-width="1.5" stroke-miterlimit="10"/>
<path d="M0.52002 5.31995H8.16002" stroke="#976837" stroke-width="1.5" stroke-miterlimit="10"/>
<path d="M7.19995 9.14001H11V13C11 13.5066 10.7987 13.9924 10.4405 14.3506C10.0823 14.7088 9.59651 14.91 9.08995 14.91C8.58686 14.9047 8.10617 14.7012 7.75229 14.3436C7.39841 13.9859 7.19992 13.5031 7.19995 13V9.14001Z" stroke="#976837" stroke-width="1.5" stroke-miterlimit="10"/>
<path d="M15.7999 18.6801H20.5699C21.0765 18.6801 21.5623 18.8813 21.9205 19.2395C22.2787 19.5977 22.4799 20.0835 22.4799 20.5901V22.5001H13.8899V20.5901C13.8899 20.0835 14.0911 19.5977 14.4493 19.2395C14.8075 18.8813 15.2933 18.6801 15.7999 18.6801Z" stroke="#976837" stroke-width="1.5" stroke-miterlimit="10"/>
<path d="M21.5201 18.68H16.7501L14.8401 9.14001H19.6101L21.5201 18.68Z" stroke="#976837" stroke-width="1.5" stroke-miterlimit="10"/>
<path d="M17.7 1.5V4.36" stroke="#976837" stroke-width="1.5" stroke-miterlimit="10"/>
<path d="M13.8899 1.5V4.36" stroke="#976837" stroke-width="1.5" stroke-miterlimit="10"/>
</svg>
