<svg width="20" height="20" viewBox="0 0 20 20" fill="none" xmlns="http://www.w3.org/2000/svg">
<path d="M9.99935 10H10.0035M14.166 10H14.1702M5.83268 10H5.83685M4.33268 5.83337H15.666C16.5994 5.83337 17.0661 5.83337 17.4227 6.01503C17.7363 6.17482 17.9912 6.42979 18.151 6.74339C18.3327 7.09991 18.3327 7.56662 18.3327 8.50004V11.5C18.3327 12.4335 18.3327 12.9002 18.151 13.2567C17.9912 13.5703 17.7363 13.8253 17.4227 13.9851C17.0661 14.1667 16.5994 14.1667 15.666 14.1667H4.33268C3.39926 14.1667 2.93255 14.1667 2.57603 13.9851C2.26243 13.8253 2.00746 13.5703 1.84767 13.2567C1.66602 12.9002 1.66602 12.4335 1.66602 11.5V8.50004C1.66602 7.56662 1.66602 7.09991 1.84767 6.74339C2.00746 6.42979 2.26243 6.17482 2.57603 6.01503C2.93255 5.83337 3.39926 5.83337 4.33268 5.83337ZM10.2077 10C10.2077 10.1151 10.1144 10.2084 9.99935 10.2084C9.88429 10.2084 9.79102 10.1151 9.79102 10C9.79102 9.88498 9.88429 9.79171 9.99935 9.79171C10.1144 9.79171 10.2077 9.88498 10.2077 10ZM14.3743 10C14.3743 10.1151 14.2811 10.2084 14.166 10.2084C14.051 10.2084 13.9577 10.1151 13.9577 10C13.9577 9.88498 14.051 9.79171 14.166 9.79171C14.2811 9.79171 14.3743 9.88498 14.3743 10ZM6.04102 10C6.04102 10.1151 5.94774 10.2084 5.83268 10.2084C5.71762 10.2084 5.62435 10.1151 5.62435 10C5.62435 9.88498 5.71762 9.79171 5.83268 9.79171C5.94774 9.79171 6.04102 9.88498 6.04102 10Z" stroke="#535862" stroke-width="1.66667" stroke-linecap="round" stroke-linejoin="round"/>
</svg>
