<svg width="20" height="20" viewBox="0 0 20 20" fill="none" xmlns="http://www.w3.org/2000/svg">
<g clip-path="url(#clip0_14411_15715)">
<path d="M11.7079 4.99996C12.5218 5.15876 13.2699 5.55684 13.8563 6.14324C14.4427 6.72964 14.8407 7.47768 14.9996 8.29163M11.7079 1.66663C13.399 1.85449 14.9759 2.61177 16.1798 3.81413C17.3836 5.01649 18.1429 6.59247 18.3329 8.28329M8.52204 11.5525C7.52072 10.5512 6.73007 9.419 6.15007 8.21098C6.10018 8.10708 6.07523 8.05512 6.05607 7.98938C5.98797 7.75575 6.03689 7.46887 6.17856 7.27101C6.21843 7.21533 6.26606 7.1677 6.36132 7.07244C6.65266 6.7811 6.79833 6.63544 6.89356 6.48895C7.25273 5.93654 7.25273 5.22439 6.89356 4.67199C6.79833 4.5255 6.65266 4.37984 6.36132 4.0885L6.19893 3.92611C5.75606 3.48324 5.53462 3.2618 5.29681 3.14151C4.82384 2.90229 4.26529 2.90229 3.79232 3.14152C3.5545 3.2618 3.33307 3.48324 2.8902 3.92611L2.75883 4.05747C2.31748 4.49882 2.09681 4.7195 1.92827 5.01952C1.74125 5.35244 1.60678 5.86952 1.60792 6.25137C1.60894 6.59549 1.67569 6.83068 1.8092 7.30105C2.52668 9.82888 3.8804 12.2142 5.87039 14.2042C7.86037 16.1942 10.2457 17.5479 12.7735 18.2654C13.2439 18.3989 13.4791 18.4656 13.8232 18.4666C14.205 18.4678 14.7221 18.3333 15.055 18.1463C15.3551 17.9777 15.5757 17.7571 16.0171 17.3157L16.1484 17.1844C16.5913 16.7415 16.8128 16.5201 16.933 16.2822C17.1723 15.8093 17.1723 15.2507 16.933 14.7777C16.8128 14.5399 16.5913 14.3185 16.1484 13.8756L15.9861 13.7132C15.6947 13.4219 15.549 13.2762 15.4026 13.181C14.8502 12.8218 14.138 12.8218 13.5856 13.181C13.4391 13.2762 13.2934 13.4219 13.0021 13.7132C12.9069 13.8085 12.8592 13.8561 12.8035 13.896C12.6057 14.0377 12.3188 14.0866 12.0852 14.0185C12.0194 13.9993 11.9675 13.9744 11.8636 13.9245C10.6556 13.3445 9.52335 12.5538 8.52204 11.5525Z" stroke="#535862" stroke-width="1.66667" stroke-linecap="round" stroke-linejoin="round"/>
</g>
<defs>
<clipPath id="clip0_14411_15715">
<rect width="20" height="20" fill="white"/>
</clipPath>
</defs>
</svg>
