<svg width="24" height="24" viewBox="0 0 24 24" fill="none" xmlns="http://www.w3.org/2000/svg">
<rect x="5" y="19" width="2" height="4" rx="1" fill="#B42318"/>
<path d="M22.25 10.25V6.31543C22.2498 5.45095 21.5491 4.75018 20.6846 4.75H3.31543C2.45095 4.75018 1.75018 5.45095 1.75 6.31543V10.25H22.25Z" stroke="#B32318" stroke-width="1.5"/>
<rect x="14.8945" y="6.6842" width="2.31577" height="2.31577" rx="1.15788" fill="#B32318"/>
<rect x="18.3711" y="6.6842" width="2.31577" height="2.31577" rx="1.15788" fill="#B32318"/>
<path d="M5.5 4.5L4.00636 2.82641C3.56699 2.3341 2.93847 2.05261 2.27862 2.05261H1" stroke="#B42318" stroke-width="1.73682" stroke-linecap="round"/>
<path d="M23 17.6846L22.9883 17.9209C22.8875 18.9134 22.1593 19.7185 21.207 19.9385C21.1891 19.4196 21.0733 18.926 20.876 18.4756C21.2337 18.3892 21.4998 18.0688 21.5 17.6846V13.5H2.5V17.6846C2.50018 18.1348 2.86516 18.4998 3.31543 18.5H13.5352C13.3366 18.9617 13.2232 19.468 13.2129 20H3.31543C2.11651 19.9998 1.13024 19.0886 1.01172 17.9209L1 17.6846V12H23V17.6846ZM19.1484 18.5C19.4842 18.9116 19.6894 19.4317 19.707 20H14.7148C14.7325 19.4317 14.9377 18.9116 15.2734 18.5H19.1484Z" fill="#B42318"/>
<path d="M17.2109 17.8289C18.4536 17.8289 19.4609 18.8362 19.4609 20.0789C19.4609 21.3215 18.4536 22.3289 17.2109 22.3289C15.9683 22.3289 14.9609 21.3215 14.9609 20.0789C14.9609 18.8362 15.9683 17.8289 17.2109 17.8289Z" fill="#FEE4E2" stroke="#B42318" stroke-width="1.5"/>
</svg>
