<svg width="24" height="24" viewBox="0 0 24 24" fill="none" xmlns="http://www.w3.org/2000/svg">
<path fill-rule="evenodd" clip-rule="evenodd" d="M24 4.76735C24 4.36379 23.7769 3.99088 23.4147 3.78907L16.6154 0.000562106V2.05788L21.2308 4.62868V4.6298L12 9.77309L2.76923 4.62868L7.38345 2.05675V0L0.585165 3.78905C0.223053 3.99087 0 4.36375 0 4.76726V12.3439L1.84615 11.3152V6.17195L11.0769 11.3158V21.6029L6.46154 19.0321L4.61538 20.0597L11.4145 23.8486C11.7768 24.0505 12.2232 24.0505 12.5855 23.8486L19.3846 20.0597L17.5385 19.031L12.9231 21.6029V11.3158L22.1538 6.17307V11.3158L24 12.345V4.76735ZM10.1539 12.4822V20.0598L8.30774 19.0312V12.8592L2.76928 9.77324V7.71536L9.5686 11.5039C9.93079 11.7057 10.1539 12.0786 10.1539 12.4822ZM12 6.70875L17.5384 3.6239L19.3846 4.65144L12.5855 8.44035C12.2232 8.64224 11.7768 8.64224 11.4145 8.44035L4.61536 4.65144L6.46035 3.62278L12 6.70875ZM21.2307 9.77323V7.71592L14.4315 11.5039C14.0693 11.7057 13.8461 12.0786 13.8461 12.4822V20.0598L15.6923 19.0311V12.8592L21.2307 9.77323Z" fill="white"/>
</svg>
