<svg width="20" height="20" viewBox="0 0 20 20" fill="none" xmlns="http://www.w3.org/2000/svg">
<g clip-path="url(#clip0_14709_36005)">
<path d="M3.33319 18.1812C3.83534 18.3333 4.51358 18.3333 5.6665 18.3333H14.3332C15.4861 18.3333 16.1643 18.3333 16.6665 18.1812M3.33319 18.1812C3.22552 18.1485 3.12595 18.1089 3.03153 18.0608C2.56112 17.8211 2.17867 17.4387 1.93899 16.9683C1.6665 16.4335 1.6665 15.7334 1.6665 14.3333V5.66663C1.6665 4.26649 1.6665 3.56643 1.93899 3.03165C2.17867 2.56124 2.56112 2.17879 3.03153 1.93911C3.56631 1.66663 4.26637 1.66663 5.6665 1.66663H14.3332C15.7333 1.66663 16.4334 1.66663 16.9681 1.93911C17.4386 2.17879 17.821 2.56124 18.0607 3.03165C18.3332 3.56643 18.3332 4.26649 18.3332 5.66663V14.3333C18.3332 15.7334 18.3332 16.4335 18.0607 16.9683C17.821 17.4387 17.4386 17.8211 16.9681 18.0608C16.8737 18.1089 16.7742 18.1485 16.6665 18.1812M3.33319 18.1812C3.33346 17.5067 3.33751 17.1498 3.39722 16.8497C3.66024 15.5274 4.6939 14.4937 6.0162 14.2307C6.3382 14.1666 6.72541 14.1666 7.49984 14.1666H12.4998C13.2743 14.1666 13.6615 14.1666 13.9835 14.2307C15.3058 14.4937 16.3394 15.5274 16.6025 16.8497C16.6622 17.1498 16.6662 17.5067 16.6665 18.1812M13.3332 7.91663C13.3332 9.75758 11.8408 11.25 9.99984 11.25C8.15889 11.25 6.6665 9.75758 6.6665 7.91663C6.6665 6.07568 8.15889 4.58329 9.99984 4.58329C11.8408 4.58329 13.3332 6.07568 13.3332 7.91663Z" stroke="#535862" stroke-width="1.66667" stroke-linecap="round" stroke-linejoin="round"/>
</g>
<defs>
<clipPath id="clip0_14709_36005">
<rect width="20" height="20" fill="white"/>
</clipPath>
</defs>
</svg>
