<svg width="280" height="59" viewBox="0 0 280 59" fill="none" xmlns="http://www.w3.org/2000/svg">
<g opacity="0.2" clip-path="url(#clip0_14012_84673)">
<path d="M20.7637 10.7841C21.5684 11.2488 22.0642 12.1075 22.0642 13.0368V35.0126L16.9823 32.0765V17.4057L-8.42699 32.0765V61.423L4.27766 54.086L9.35951 57.0205L-9.66698 68.0087C-10.472 68.4736 -11.4639 68.4736 -12.2689 68.0087L-31.2954 57.0205L-26.2135 54.0892L-13.5089 61.423V32.0765L-38.9181 17.4025V32.0749L-44 35.0094V13.0366C-44 12.1074 -43.5044 11.2488 -42.6998 10.7841L-23.6758 -0.204468V5.66291L-36.3772 12.9999L-10.9679 27.6756L14.4414 13.0031V12.9999L1.73672 5.66611V-0.202864L20.7637 10.7841Z" fill="#053628"/>
<path d="M-10.9672 18.9335L4.27833 10.1332L9.36019 13.0645L-9.66631 24.0528C-10.4713 24.5177 -11.4632 24.5177 -12.2682 24.0528L-31.2947 13.0645L-26.216 10.13L-10.9672 18.9335Z" fill="#053628"/>
<path d="M14.4417 21.8073V27.6762L-0.803886 36.4797V54.0866L-5.88574 57.0211V35.0454C-5.88574 34.1161 -5.38995 33.2573 -4.58512 32.7927L14.4417 21.8073Z" fill="#053628"/>
<path d="M20.7634 54.7359C21.5682 55.2006 22.0639 56.0593 22.0639 56.9886V78.9643L16.9821 76.0282V61.3574L-8.42724 76.0282V105.375L4.27741 98.0377L9.35927 100.972L-9.66723 111.96C-10.4722 112.425 -11.4641 112.425 -12.2691 111.96L-31.2956 100.972L-26.2137 98.0409L-13.5091 105.375V76.0282L-38.9184 61.3542V76.0266L-44.0002 78.9611V56.9883C-44.0002 56.0592 -43.5046 55.2005 -42.7 54.7358L-23.676 43.7473V49.6146L-36.3775 56.9517L-10.9682 71.6273L14.4411 56.9549V56.9517L1.73648 49.6178V43.7489L20.7634 54.7359Z" fill="#053628"/>
<path d="M-10.9672 62.8857L4.27833 54.0854L9.36019 57.0167L-9.66631 68.0049C-10.4713 68.4698 -11.4632 68.4698 -12.2682 68.0049L-31.2947 57.0167L-26.216 54.0822L-10.9672 62.8857Z" fill="#053628"/>
<path d="M60.1785 57.0206V35.0448C60.1785 34.1155 59.6828 33.2568 58.878 32.7921L39.8511 21.8051V27.6757L55.0966 36.4792V54.0861L60.1785 57.0206Z" fill="#053628"/>
<path d="M96.991 10.7842C97.7957 11.2489 98.2915 12.1076 98.2915 13.0369V35.0127L93.2096 32.0766V17.4057L67.8003 32.0766V61.4231L80.505 54.086L85.5868 57.0205L66.5603 68.0088C65.7553 68.4737 64.7634 68.4737 63.9584 68.0088L44.9319 57.0205L50.0138 54.0893L62.7184 61.4231V32.0766L37.3092 17.4025V32.075L32.2273 35.0095V13.0367C32.2273 12.1075 32.7229 11.2489 33.5275 10.7841L52.5515 -0.204407V5.66297L39.8501 13L65.2594 27.6756L90.6687 13.0032V13L77.964 5.66617V-0.202803L96.991 10.7842Z" fill="#053628"/>
<path d="M65.2593 18.9335L80.5049 10.1332L85.5867 13.0645L66.5603 24.0528C65.7553 24.5177 64.7634 24.5177 63.9584 24.0528L44.9319 13.0645L50.0105 10.13L65.2593 18.9335Z" fill="#053628"/>
<path d="M90.6692 21.8073V27.6762L75.4237 36.4797V54.0866L70.3418 57.0211V35.0454C70.3418 34.1161 70.8376 33.2573 71.6424 32.7927L90.6692 21.8073Z" fill="#053628"/>
<path d="M96.9917 54.7359C97.7965 55.2006 98.2922 56.0593 98.2922 56.9886V78.9643L93.2103 76.0282V61.3574L67.801 76.0282V105.375L80.5057 98.0377L85.5875 100.972L66.561 111.96C65.7561 112.425 64.7642 112.425 63.9592 111.96L44.9327 100.972L50.0145 98.0409L62.7192 105.375V76.0282L37.3099 61.3542V76.0266L32.228 78.9611V56.9883C32.228 56.0592 32.7236 55.2005 33.5282 54.7358L52.5523 43.7473V49.6146L39.8508 56.9517L65.2601 71.6273L90.6694 56.9549V56.9517L77.9647 49.6178V43.7489L96.9917 54.7359Z" fill="#053628"/>
<path d="M65.2598 62.8857L80.5054 54.0854L85.5872 57.0167L66.5607 68.0049C65.7558 68.4698 64.7639 68.4698 63.9589 68.0049L44.9324 57.0167L50.011 54.0822L65.2598 62.8857Z" fill="#053628"/>
<path d="M136.405 57.0206V35.0448C136.405 34.1155 135.91 33.2568 135.105 32.7921L116.078 21.8051V27.6757L131.323 36.4792V54.0861L136.405 57.0206Z" fill="#053628"/>
<path d="M173.219 10.7842C174.024 11.2489 174.52 12.1076 174.52 13.0369V35.0127L169.438 32.0766V17.4057L144.029 32.0766V61.4231L156.733 54.086L161.815 57.0205L142.789 68.0088C141.984 68.4737 140.992 68.4737 140.187 68.0088L121.16 57.0205L126.242 54.0893L138.947 61.4231V32.0766L113.537 17.4025V32.075L108.456 35.0095V13.0367C108.456 12.1075 108.951 11.2489 109.756 10.7841L128.78 -0.204407V5.66297L116.078 13L141.488 27.6756L166.897 13.0032V13L154.192 5.66617V-0.202803L173.219 10.7842Z" fill="#053628"/>
<path d="M141.487 18.9335L156.733 10.1332L161.815 13.0645L142.788 24.0528C141.983 24.5177 140.991 24.5177 140.186 24.0528L121.16 13.0645L126.239 10.13L141.487 18.9335Z" fill="#053628"/>
<path d="M166.896 21.8073V27.6762L151.651 36.4797V54.0866L146.569 57.0211V35.0454C146.569 34.1161 147.065 33.2573 147.869 32.7927L166.896 21.8073Z" fill="#053628"/>
<path d="M173.219 54.7359C174.024 55.2006 174.52 56.0593 174.52 56.9886V78.9643L169.438 76.0282V61.3574L144.029 76.0282V105.375L156.733 98.0377L161.815 100.972L142.789 111.96C141.984 112.425 140.992 112.425 140.187 111.96L121.16 100.972L126.242 98.0409L138.947 105.375V76.0282L113.537 61.3542V76.0266L108.456 78.9611V56.9883C108.456 56.0592 108.951 55.2005 109.756 54.7358L128.78 43.7473V49.6146L116.078 56.9517L141.488 71.6273L166.897 56.9549V56.9517L154.192 49.6178V43.7489L173.219 54.7359Z" fill="#053628"/>
<path d="M141.487 62.8857L156.733 54.0854L161.815 57.0167L142.788 68.0049C141.983 68.4698 140.991 68.4698 140.186 68.0049L121.16 57.0167L126.239 54.0822L141.487 62.8857Z" fill="#053628"/>
<path d="M212.634 57.0206V35.0448C212.634 34.1155 212.138 33.2568 211.334 32.7921L192.307 21.8051V27.6757L207.552 36.4792V54.0861L212.634 57.0206Z" fill="#053628"/>
<path d="M249.447 10.7842C250.252 11.2489 250.748 12.1076 250.748 13.0369V35.0127L245.666 32.0766V17.4057L220.257 32.0766V61.4231L232.961 54.086L238.043 57.0205L219.017 68.0088C218.212 68.4737 217.22 68.4737 216.415 68.0088L197.388 57.0205L202.47 54.0893L215.175 61.4231V32.0766L189.765 17.4025V32.075L184.684 35.0095V13.0367C184.684 12.1075 185.179 11.2489 185.984 10.7841L205.008 -0.204407V5.66297L192.306 13L217.716 27.6756L243.125 13.0032V13L230.42 5.66617V-0.202803L249.447 10.7842Z" fill="#053628"/>
<path d="M217.716 18.9335L232.961 10.1332L238.043 13.0645L219.017 24.0528C218.212 24.5177 217.22 24.5177 216.415 24.0528L197.388 13.0645L202.467 10.13L217.716 18.9335Z" fill="#053628"/>
<path d="M243.125 21.8073V27.6762L227.879 36.4797V54.0866L222.797 57.0211V35.0454C222.797 34.1161 223.293 33.2573 224.098 32.7927L243.125 21.8073Z" fill="#053628"/>
<path d="M249.447 54.7359C250.252 55.2006 250.748 56.0593 250.748 56.9886V78.9643L245.666 76.0282V61.3574L220.257 76.0282V105.375L232.961 98.0377L238.043 100.972L219.017 111.96C218.212 112.425 217.22 112.425 216.415 111.96L197.388 100.972L202.47 98.0409L215.175 105.375V76.0282L189.765 61.3542V76.0266L184.684 78.9611V56.9883C184.684 56.0592 185.179 55.2005 185.984 54.7358L205.008 43.7473V49.6146L192.306 56.9517L217.716 71.6273L243.125 56.9549V56.9517L230.42 49.6178V43.7489L249.447 54.7359Z" fill="#053628"/>
<path d="M217.716 62.8857L232.961 54.0854L238.043 57.0167L219.017 68.0049C218.212 68.4698 217.22 68.4698 216.415 68.0049L197.388 57.0167L202.467 54.0822L217.716 62.8857Z" fill="#053628"/>
<path d="M288.861 57.0206V35.0448C288.861 34.1155 288.365 33.2568 287.56 32.7921L268.533 21.8051V27.6757L283.779 36.4792V54.0861L288.861 57.0206Z" fill="#053628"/>
<path d="M325.675 10.7842C326.48 11.2489 326.976 12.1076 326.976 13.0369V35.0127L321.894 32.0766V17.4057L296.484 32.0766V61.4231L309.189 54.086L314.271 57.0205L295.244 68.0088C294.439 68.4737 293.448 68.4737 292.643 68.0088L273.616 57.0205L278.698 54.0893L291.403 61.4231V32.0766L265.993 17.4025V32.075L260.911 35.0095V13.0367C260.911 12.1075 261.407 11.2489 262.212 10.7841L281.236 -0.204407V5.66297L268.534 13L293.943 27.6756L319.353 13.0032V13L306.648 5.66617V-0.202803L325.675 10.7842Z" fill="#053628"/>
<path d="M293.943 18.9335L309.189 10.1332L314.271 13.0645L295.244 24.0528C294.439 24.5177 293.447 24.5177 292.642 24.0528L273.616 13.0645L278.694 10.13L293.943 18.9335Z" fill="#053628"/>
<path d="M325.675 54.7359C326.48 55.2006 326.976 56.0593 326.976 56.9886V78.9643L321.894 76.0282V61.3574L296.484 76.0282V105.375L309.189 98.0377L314.271 100.972L295.244 111.96C294.439 112.425 293.448 112.425 292.643 111.96L273.616 100.972L278.698 98.0409L291.403 105.375V76.0282L265.993 61.3542V76.0266L260.911 78.9611V56.9883C260.911 56.0592 261.407 55.2005 262.212 54.7358L281.236 43.7473V49.6146L268.534 56.9517L293.943 71.6273L319.353 56.9549V56.9517L306.648 49.6178V43.7489L325.675 54.7359Z" fill="#053628"/>
<path d="M293.943 62.8859L309.189 54.0857L314.271 57.0169L295.244 68.0052C294.439 68.4701 293.447 68.4701 292.642 68.0052L273.616 57.0169L278.694 54.0825L293.943 62.8859Z" fill="#053628"/>
<path d="M22.0642 79.0315V57.0557C22.0642 56.1264 21.5685 55.2677 20.7638 54.803L1.73682 43.816V49.6866L16.9824 58.4901V76.097L22.0642 79.0315Z" fill="#053628"/>
<path d="M58.8779 32.7959C59.6827 33.2606 60.1784 34.1193 60.1784 35.0485V57.0243L55.0966 54.0882V39.4174L29.6873 54.0882V83.4347L42.3919 76.0977L47.4738 79.0322L28.4473 90.0204C27.6423 90.4853 26.6504 90.4853 25.8454 90.0204L6.8189 79.0322L11.9008 76.1009L24.6054 83.4347V54.0882L-0.803884 39.4142V54.0866L-5.88574 57.0211V35.0483C-5.88574 34.1192 -5.39013 33.2605 -4.58554 32.7958L14.4385 21.8073V27.6746L1.73705 35.0116L27.1463 49.6873L52.5556 35.0149V35.0116L39.851 27.6778V21.8089L58.8779 32.7959Z" fill="#053628"/>
<path d="M27.1458 40.9449L42.3914 32.1447L47.4732 35.0759L28.4467 46.0642C27.6417 46.5291 26.6498 46.5291 25.8448 46.0642L6.81836 35.0759L11.897 32.1414L27.1458 40.9449Z" fill="#053628"/>
<path d="M52.5555 43.8181V49.6871L37.3099 58.4906V76.0975L32.228 79.032V57.0563C32.228 56.127 32.7238 55.2682 33.5287 54.8036L52.5555 43.8181Z" fill="#053628"/>
<path d="M98.2925 79.0315V57.0557C98.2925 56.1264 97.7968 55.2677 96.992 54.803L77.9651 43.816V49.6866L93.2107 58.4901V76.097L98.2925 79.0315Z" fill="#053628"/>
<path d="M135.105 32.7959C135.91 33.2606 136.406 34.1193 136.406 35.0485V57.0243L131.324 54.0882V39.4174L105.915 54.0882V83.4347L118.619 76.0977L123.701 79.0322L104.675 90.0204C103.87 90.4853 102.878 90.4853 102.073 90.0204L83.0464 79.0322L88.1283 76.1009L100.833 83.4347V54.0882L75.4237 39.4142V54.0866L70.3418 57.0211V35.0483C70.3418 34.1192 70.8374 33.2605 71.642 32.7958L90.666 21.8073V27.6746L77.9646 35.0116L103.374 49.6873L128.783 35.0149V35.0116L116.079 27.6778V21.8089L135.105 32.7959Z" fill="#053628"/>
<path d="M103.374 40.9449L118.619 32.1447L123.701 35.0759L104.675 46.0642C103.87 46.5291 102.878 46.5291 102.073 46.0642L83.0464 35.0759L88.125 32.1414L103.374 40.9449Z" fill="#053628"/>
<path d="M128.783 43.8181V49.6871L113.537 58.4906V76.0975L108.456 79.032V57.0563C108.456 56.127 108.951 55.2682 109.756 54.8036L128.783 43.8181Z" fill="#053628"/>
<path d="M174.52 79.0315V57.0557C174.52 56.1264 174.024 55.2677 173.219 54.803L154.192 43.816V49.6866L169.438 58.4901V76.097L174.52 79.0315Z" fill="#053628"/>
<path d="M211.333 32.7959C212.137 33.2606 212.633 34.1193 212.633 35.0485V57.0243L207.551 54.0882V39.4174L182.142 54.0882V83.4347L194.847 76.0977L199.928 79.0322L180.902 90.0204C180.097 90.4853 179.105 90.4853 178.3 90.0204L159.273 79.0322L164.355 76.1009L177.06 83.4347V54.0882L151.651 39.4142V54.0866L146.569 57.0211V35.0483C146.569 34.1192 147.064 33.2605 147.869 32.7958L166.893 21.8073V27.6746L154.192 35.0116L179.601 49.6873L205.01 35.0149V35.0116L192.306 27.6778V21.8089L211.333 32.7959Z" fill="#053628"/>
<path d="M179.602 40.9449L194.848 32.1447L199.93 35.0759L180.903 46.0642C180.098 46.5291 179.106 46.5291 178.301 46.0642L159.275 35.0759L164.354 32.1414L179.602 40.9449Z" fill="#053628"/>
<path d="M205.011 43.8181V49.6871L189.765 58.4906V76.0975L184.684 79.032V57.0563C184.684 56.127 185.179 55.2682 185.984 54.8036L205.011 43.8181Z" fill="#053628"/>
<path d="M250.747 79.0315V57.0557C250.747 56.1264 250.251 55.2677 249.446 54.803L230.419 43.816V49.6866L245.665 58.4901V76.097L250.747 79.0315Z" fill="#053628"/>
<path d="M287.561 32.7959C288.366 33.2606 288.861 34.1193 288.861 35.0485V57.0243L283.779 54.0882V39.4174L258.37 54.0882V83.4347L271.075 76.0977L276.157 79.0322L257.13 90.0204C256.325 90.4853 255.333 90.4853 254.528 90.0204L235.502 79.0322L240.584 76.1009L253.288 83.4347V54.0882L227.879 39.4142V54.0866L222.797 57.0211V35.0483C222.797 34.1192 223.293 33.2605 224.097 32.7958L243.121 21.8073V27.6746L230.42 35.0116L255.829 49.6873L281.238 35.0149V35.0116L268.534 27.6778V21.8089L287.561 32.7959Z" fill="#053628"/>
<path d="M255.829 40.9449L271.075 32.1447L276.157 35.0759L257.13 46.0642C256.325 46.5291 255.333 46.5291 254.528 46.0642L235.502 35.0759L240.581 32.1414L255.829 40.9449Z" fill="#053628"/>
<path d="M281.239 43.8184V49.6874L265.993 58.4908V76.0978L260.911 79.0322V57.0566C260.911 56.1272 261.407 55.2685 262.212 54.8038L281.239 43.8184Z" fill="#053628"/>
</g>
<defs>
<clipPath id="clip0_14012_84673">
<rect width="280" height="59" fill="white"/>
</clipPath>
</defs>
</svg>
