<svg width="140" height="30" viewBox="0 0 140 30" fill="none" xmlns="http://www.w3.org/2000/svg">
<g opacity="0.2" clip-path="url(#clip0_14859_41981)">
<path d="M10.3818 5.39207C10.7842 5.62442 11.0321 6.05377 11.0321 6.51842V17.5063L8.49115 16.0383V8.70284L-4.2135 16.0383V30.7115L2.13883 27.043L4.67976 28.5102L-4.83349 34.0044C-5.23599 34.2368 -5.73193 34.2368 -6.13443 34.0044L-15.6477 28.5102L-13.1067 27.0446L-6.75443 30.7115V16.0383L-19.4591 8.70123V16.0375L-22 17.5047V6.5183C-22 6.05372 -21.7522 5.62441 -21.3499 5.39204L-11.8379 -0.102234V2.83145L-18.1886 6.49997L-5.48396 13.8378L7.22069 6.50157V6.49997L0.868361 2.83306V-0.101432L10.3818 5.39207Z" fill="#053628"/>
<path d="M-5.48362 9.46675L2.13916 5.06662L4.68009 6.53226L-4.83315 12.0264C-5.23565 12.2588 -5.7316 12.2588 -6.13409 12.0264L-15.6473 6.53226L-13.108 5.06502L-5.48362 9.46675Z" fill="#053628"/>
<path d="M7.22084 10.9036V13.8381L-0.401943 18.2398V27.0433L-2.94287 28.5106V17.5227C-2.94287 17.058 -2.69497 16.6287 -2.29256 16.3963L7.22084 10.9036Z" fill="#053628"/>
<path d="M10.3817 27.3679C10.7841 27.6003 11.032 28.0296 11.032 28.4943V39.4822L8.49103 38.0141V30.6787L-4.21362 38.0141V52.6874L2.13871 49.0189L4.67963 50.4861L-4.83361 55.9802C-5.23611 56.2127 -5.73206 56.2127 -6.13455 55.9802L-15.6478 50.4861L-13.1069 49.0205L-6.75455 52.6874V38.0141L-19.4592 30.6771V38.0133L-22.0001 39.4806V28.4942C-22.0001 28.0296 -21.7523 27.6003 -21.35 27.3679L-11.838 21.8736V24.8073L-18.1887 28.4758L-5.48408 35.8137L7.22056 28.4774V28.4758L0.868239 24.8089V21.8744L10.3817 27.3679Z" fill="#053628"/>
<path d="M-5.48362 31.4428L2.13916 27.0427L4.68009 28.5084L-4.83315 34.0025C-5.23565 34.2349 -5.7316 34.2349 -6.13409 34.0025L-15.6473 28.5084L-13.108 27.0411L-5.48362 31.4428Z" fill="#053628"/>
<path d="M30.0893 28.5103V17.5224C30.0893 17.0578 29.8414 16.6284 29.439 16.3961L19.9255 10.9026V13.8378L27.5483 18.2396V27.043L30.0893 28.5103Z" fill="#053628"/>
<path d="M48.4955 5.3921C48.8979 5.62445 49.1457 6.0538 49.1457 6.51845V17.5063L46.6048 16.0383V8.70287L33.9002 16.0383V30.7115L40.2525 27.043L42.7934 28.5103L33.2802 34.0044C32.8777 34.2368 32.3817 34.2368 31.9792 34.0044L22.466 28.5103L25.0069 27.0446L31.3592 30.7115V16.0383L18.6546 8.70126V16.0375L16.1136 17.5047V6.51833C16.1136 6.05375 16.3615 5.62444 16.7637 5.39207L26.2758 -0.102203V2.83148L19.925 6.5L32.6297 13.8378L45.3343 6.5016V6.5L38.982 2.83309V-0.101402L48.4955 5.3921Z" fill="#053628"/>
<path d="M32.6297 9.46675L40.2524 5.06662L42.7934 6.53226L33.2801 12.0264C32.8776 12.2588 32.3817 12.2588 31.9792 12.0264L22.4659 6.53226L25.0053 5.06502L32.6297 9.46675Z" fill="#053628"/>
<path d="M45.3346 10.9036V13.8381L37.7118 18.2398V27.0433L35.1709 28.5106V17.5227C35.1709 17.058 35.4188 16.6287 35.8212 16.3963L45.3346 10.9036Z" fill="#053628"/>
<path d="M48.4959 27.3679C48.8982 27.6003 49.1461 28.0296 49.1461 28.4943V39.4822L46.6052 38.0141V30.6787L33.9005 38.0141V52.6874L40.2528 49.0189L42.7938 50.4861L33.2805 55.9802C32.878 56.2127 32.3821 56.2127 31.9796 55.9802L22.4663 50.4861L25.0073 49.0205L31.3596 52.6874V38.0141L18.6549 30.6771V38.0133L16.114 39.4806V28.4942C16.114 28.0296 16.3618 27.6003 16.7641 27.3679L26.2761 21.8736V24.8073L19.9254 28.4758L32.6301 35.8137L45.3347 28.4774V28.4758L38.9824 24.8089V21.8744L48.4959 27.3679Z" fill="#053628"/>
<path d="M32.6299 31.4428L40.2527 27.0427L42.7936 28.5084L33.2804 34.0025C32.8779 34.2349 32.3819 34.2349 31.9794 34.0025L22.4662 28.5084L25.0055 27.0411L32.6299 31.4428Z" fill="#053628"/>
<path d="M68.2027 28.5103V17.5224C68.2027 17.0578 67.9548 16.6284 67.5524 16.3961L58.0389 10.9026V13.8378L65.6617 18.2396V27.043L68.2027 28.5103Z" fill="#053628"/>
<path d="M86.6096 5.3921C87.012 5.62445 87.2599 6.0538 87.2599 6.51845V17.5063L84.7189 16.0383V8.70287L72.0143 16.0383V30.7115L78.3666 27.043L80.9075 28.5103L71.3943 34.0044C70.9918 34.2368 70.4958 34.2368 70.0934 34.0044L60.5801 28.5103L63.121 27.0446L69.4734 30.7115V16.0383L56.7687 8.70126V16.0375L54.2278 17.5047V6.51833C54.2278 6.05375 54.4756 5.62444 54.8779 5.39207L64.3899 -0.102203V2.83148L58.0392 6.5L70.7438 13.8378L83.4485 6.5016V6.5L77.0961 2.83309V-0.101402L86.6096 5.3921Z" fill="#053628"/>
<path d="M70.7437 9.46675L78.3665 5.06662L80.9074 6.53226L71.3941 12.0264C70.9916 12.2588 70.4957 12.2588 70.0932 12.0264L60.58 6.53226L63.1193 5.06502L70.7437 9.46675Z" fill="#053628"/>
<path d="M83.4481 10.9036V13.8381L75.8254 18.2398V27.0433L73.2844 28.5106V17.5227C73.2844 17.058 73.5323 16.6287 73.9347 16.3963L83.4481 10.9036Z" fill="#053628"/>
<path d="M86.6096 27.3679C87.012 27.6003 87.2599 28.0296 87.2599 28.4943V39.4822L84.7189 38.0141V30.6787L72.0143 38.0141V52.6874L78.3666 49.0189L80.9075 50.4861L71.3943 55.9802C70.9918 56.2127 70.4958 56.2127 70.0934 55.9802L60.5801 50.4861L63.121 49.0205L69.4734 52.6874V38.0141L56.7687 30.6771V38.0133L54.2278 39.4806V28.4942C54.2278 28.0296 54.4756 27.6003 54.8779 27.3679L64.3899 21.8736V24.8073L58.0392 28.4758L70.7438 35.8137L83.4485 28.4774V28.4758L77.0961 24.8089V21.8744L86.6096 27.3679Z" fill="#053628"/>
<path d="M70.7437 31.4428L78.3665 27.0427L80.9074 28.5084L71.3941 34.0025C70.9916 34.2349 70.4957 34.2349 70.0932 34.0025L60.58 28.5084L63.1193 27.0411L70.7437 31.4428Z" fill="#053628"/>
<path d="M106.317 28.5103V17.5224C106.317 17.0578 106.069 16.6284 105.667 16.3961L96.1533 10.9026V13.8378L103.776 18.2396V27.043L106.317 28.5103Z" fill="#053628"/>
<path d="M124.724 5.3921C125.126 5.62445 125.374 6.0538 125.374 6.51845V17.5063L122.833 16.0383V8.70287L110.128 16.0383V30.7115L116.481 27.043L119.022 28.5103L109.508 34.0044C109.106 34.2368 108.61 34.2368 108.207 34.0044L98.6941 28.5103L101.235 27.0446L107.587 30.7115V16.0383L94.8827 8.70126V16.0375L92.3418 17.5047V6.51833C92.3418 6.05375 92.5896 5.62444 92.9919 5.39207L102.504 -0.102203V2.83148L96.1532 6.5L108.858 13.8378L121.562 6.5016V6.5L115.21 2.83309V-0.101402L124.724 5.3921Z" fill="#053628"/>
<path d="M108.858 9.46675L116.481 5.06662L119.022 6.53226L109.508 12.0264C109.106 12.2588 108.61 12.2588 108.207 12.0264L98.6941 6.53226L101.233 5.06502L108.858 9.46675Z" fill="#053628"/>
<path d="M121.562 10.9036V13.8381L113.94 18.2398V27.0433L111.399 28.5106V17.5227C111.399 17.058 111.647 16.6287 112.049 16.3963L121.562 10.9036Z" fill="#053628"/>
<path d="M124.724 27.3679C125.126 27.6003 125.374 28.0296 125.374 28.4943V39.4822L122.833 38.0141V30.6787L110.128 38.0141V52.6874L116.481 49.0189L119.022 50.4861L109.508 55.9802C109.106 56.2127 108.61 56.2127 108.207 55.9802L98.6941 50.4861L101.235 49.0205L107.587 52.6874V38.0141L94.8827 30.6771V38.0133L92.3418 39.4806V28.4942C92.3418 28.0296 92.5896 27.6003 92.9919 27.3679L102.504 21.8736V24.8073L96.1532 28.4758L108.858 35.8137L121.562 28.4774V28.4758L115.21 24.8089V21.8744L124.724 27.3679Z" fill="#053628"/>
<path d="M108.858 31.4428L116.481 27.0427L119.022 28.5084L109.508 34.0025C109.106 34.2349 108.61 34.2349 108.207 34.0025L98.6941 28.5084L101.233 27.0411L108.858 31.4428Z" fill="#053628"/>
<path d="M144.43 28.5103V17.5224C144.43 17.0578 144.182 16.6284 143.78 16.3961L134.267 10.9026V13.8378L141.889 18.2396V27.043L144.43 28.5103Z" fill="#053628"/>
<path d="M162.838 5.3921C163.24 5.62445 163.488 6.0538 163.488 6.51845V17.5063L160.947 16.0383V8.70287L148.242 16.0383V30.7115L154.595 27.043L157.136 28.5103L147.622 34.0044C147.22 34.2368 146.724 34.2368 146.321 34.0044L136.808 28.5103L139.349 27.0446L145.701 30.7115V16.0383L132.997 8.70126V16.0375L130.456 17.5047V6.51833C130.456 6.05375 130.704 5.62444 131.106 5.39207L140.618 -0.102203V2.83148L134.267 6.5L146.972 13.8378L159.676 6.5016V6.5L153.324 2.83309V-0.101402L162.838 5.3921Z" fill="#053628"/>
<path d="M146.972 9.46675L154.594 5.06662L157.135 6.53226L147.622 12.0264C147.22 12.2588 146.724 12.2588 146.321 12.0264L136.808 6.53226L139.347 5.06502L146.972 9.46675Z" fill="#053628"/>
<path d="M162.838 27.3679C163.24 27.6003 163.488 28.0296 163.488 28.4943V39.4822L160.947 38.0141V30.6787L148.242 38.0141V52.6874L154.595 49.0189L157.136 50.4861L147.622 55.9802C147.22 56.2127 146.724 56.2127 146.321 55.9802L136.808 50.4861L139.349 49.0205L145.701 52.6874V38.0141L132.997 30.6771V38.0133L130.456 39.4806V28.4942C130.456 28.0296 130.704 27.6003 131.106 27.3679L140.618 21.8736V24.8073L134.267 28.4758L146.972 35.8137L159.676 28.4774V28.4758L153.324 24.8089V21.8744L162.838 27.3679Z" fill="#053628"/>
<path d="M146.972 31.443L154.594 27.0428L157.135 28.5085L147.622 34.0026C147.22 34.235 146.724 34.235 146.321 34.0026L136.808 28.5085L139.347 27.0412L146.972 31.443Z" fill="#053628"/>
<path d="M11.0321 39.5157V28.5279C11.0321 28.0632 10.7843 27.6339 10.3819 27.4015L0.868408 21.908V24.8433L8.49119 29.245V38.0485L11.0321 39.5157Z" fill="#053628"/>
<path d="M29.439 16.3979C29.8413 16.6303 30.0892 17.0596 30.0892 17.5243V28.5122L27.5483 27.0441V19.7087L14.8436 27.0441V41.7174L21.196 38.0488L23.7369 39.5161L14.2236 45.0102C13.8211 45.2427 13.3252 45.2427 12.9227 45.0102L3.40945 39.5161L5.95038 38.0505L12.3027 41.7174V27.0441L-0.401942 19.7071V27.0433L-2.94287 28.5106V17.5242C-2.94287 17.0596 -2.69507 16.6303 -2.29277 16.3979L7.21924 10.9036V13.8373L0.868523 17.5058L13.5732 24.8436L26.2778 17.5074V17.5058L19.9255 13.8389V10.9044L29.439 16.3979Z" fill="#053628"/>
<path d="M13.5729 20.4725L21.1957 16.0723L23.7366 17.538L14.2234 23.0321C13.8209 23.2645 13.3249 23.2645 12.9224 23.0321L3.40918 17.538L5.9485 16.0707L13.5729 20.4725Z" fill="#053628"/>
<path d="M26.2777 21.9091V24.8436L18.6549 29.2453V38.0488L16.114 39.516V28.5282C16.114 28.0635 16.3619 27.6341 16.7643 27.4018L26.2777 21.9091Z" fill="#053628"/>
<path d="M49.1463 39.5157V28.5279C49.1463 28.0632 48.8984 27.6339 48.496 27.4015L38.9825 21.908V24.8433L46.6053 29.245V38.0485L49.1463 39.5157Z" fill="#053628"/>
<path d="M67.5527 16.3979C67.9551 16.6303 68.203 17.0596 68.203 17.5243V28.5122L65.662 27.0441V19.7087L52.9574 27.0441V41.7174L59.3097 38.0488L61.8507 39.5161L52.3374 45.0102C51.9349 45.2427 51.439 45.2427 51.0365 45.0102L41.5232 39.5161L44.0642 38.0505L50.4165 41.7174V27.0441L37.7118 19.7071V27.0433L35.1709 28.5106V17.5242C35.1709 17.0596 35.4187 16.6303 35.821 16.3979L45.333 10.9036V13.8373L38.9823 17.5058L51.6869 24.8436L64.3916 17.5074V17.5058L58.0393 13.8389V10.9044L67.5527 16.3979Z" fill="#053628"/>
<path d="M51.6869 20.4725L59.3097 16.0723L61.8506 17.538L52.3374 23.0321C51.9349 23.2645 51.4389 23.2645 51.0364 23.0321L41.5232 17.538L44.0625 16.0707L51.6869 20.4725Z" fill="#053628"/>
<path d="M64.3915 21.9091V24.8436L56.7687 29.2453V38.0488L54.2278 39.516V28.5282C54.2278 28.0635 54.4757 27.6341 54.8781 27.4018L64.3915 21.9091Z" fill="#053628"/>
<path d="M87.2599 39.5157V28.5279C87.2599 28.0632 87.012 27.6339 86.6097 27.4015L77.0962 21.908V24.8433L84.719 29.245V38.0485L87.2599 39.5157Z" fill="#053628"/>
<path d="M105.666 16.3979C106.069 16.6303 106.317 17.0596 106.317 17.5243V28.5122L103.776 27.0441V19.7087L91.0709 27.0441V41.7174L97.4233 38.0488L99.9642 39.5161L90.4509 45.0102C90.0484 45.2427 89.5525 45.2427 89.15 45.0102L79.6367 39.5161L82.1777 38.0505L88.53 41.7174V27.0441L75.8254 19.7071V27.0433L73.2844 28.5106V17.5242C73.2844 17.0596 73.5322 16.6303 73.9345 16.3979L83.4465 10.9036V13.8373L77.0958 17.5058L89.8005 24.8436L102.505 17.5074V17.5058L96.1528 13.8389V10.9044L105.666 16.3979Z" fill="#053628"/>
<path d="M89.8012 20.4725L97.424 16.0723L99.9649 17.538L90.4516 23.0321C90.0491 23.2645 89.5532 23.2645 89.1507 23.0321L79.6375 17.538L82.1768 16.0707L89.8012 20.4725Z" fill="#053628"/>
<path d="M102.506 21.9091V24.8436L94.8827 29.2453V38.0488L92.3418 39.516V28.5282C92.3418 28.0635 92.5897 27.6341 92.9921 27.4018L102.506 21.9091Z" fill="#053628"/>
<path d="M125.373 39.5157V28.5279C125.373 28.0632 125.126 27.6339 124.723 27.4015L115.21 21.908V24.8433L122.833 29.245V38.0485L125.373 39.5157Z" fill="#053628"/>
<path d="M143.781 16.3979C144.183 16.6303 144.431 17.0596 144.431 17.5243V28.5122L141.89 27.0441V19.7087L129.185 27.0441V41.7174L135.538 38.0488L138.078 39.5161L128.565 45.0102C128.163 45.2427 127.667 45.2427 127.264 45.0102L117.751 39.5161L120.292 38.0505L126.644 41.7174V27.0441L113.94 19.7071V27.0433L111.399 28.5106V17.5242C111.399 17.0596 111.646 16.6303 112.049 16.3979L121.561 10.9036V13.8373L115.21 17.5058L127.915 24.8436L140.619 17.5074V17.5058L134.267 13.8389V10.9044L143.781 16.3979Z" fill="#053628"/>
<path d="M127.915 20.4725L135.537 16.0723L138.078 17.538L128.565 23.0321C128.163 23.2645 127.667 23.2645 127.264 23.0321L117.751 17.538L120.29 16.0707L127.915 20.4725Z" fill="#053628"/>
<path d="M140.62 21.9092V24.8437L132.997 29.2454V38.0489L130.456 39.5161V28.5283C130.456 28.0636 130.704 27.6342 131.106 27.4019L140.62 21.9092Z" fill="#053628"/>
</g>
<defs>
<clipPath id="clip0_14859_41981">
<rect width="140" height="29.5" fill="white"/>
</clipPath>
</defs>
</svg>
