<svg width="135" height="40" viewBox="0 0 135 40" fill="none" xmlns="http://www.w3.org/2000/svg">
<path fill-rule="evenodd" clip-rule="evenodd" d="M37.914 7.88466C37.914 7.21722 37.558 6.60046 36.98 6.2667L26.1291 0.00092966V3.4035L33.4947 7.65531V7.65717L18.7635 16.1636L4.03238 7.65531L11.3961 3.40164V0L0.546887 6.26666C-0.0309992 6.60045 -0.386963 7.21714 -0.386963 7.8845V20.4154L2.55927 18.7141V10.2077L17.2904 18.715V35.7288L9.92484 31.477L6.97861 33.1764L17.8291 39.4429C18.4073 39.7768 19.1197 39.7768 19.6979 39.4429L30.5484 33.1764L27.6022 31.4751L20.2366 35.7288V18.715L34.9678 10.2096V18.715L37.914 20.4173V7.88466ZM15.8174 20.6441V33.1767L12.8711 31.4754V21.2677L4.03246 16.1638V12.7603L14.8833 19.0261C15.4613 19.3599 15.8174 19.9766 15.8174 20.6441ZM18.7635 11.0955L27.6022 5.99353L30.5484 7.69295L19.6979 13.9594C19.1197 14.2933 18.4073 14.2933 17.8291 13.9594L6.97857 7.69295L9.92294 5.99167L18.7635 11.0955ZM33.4946 16.1638V12.7613L22.6439 19.0261C22.0658 19.3599 21.7097 19.9766 21.7097 20.6441V33.1766L24.6559 31.4754V21.2677L33.4946 16.1638ZM132.784 10.3811C133.389 10.3811 133.883 10.5733 134.268 10.9577C134.634 11.3238 134.817 11.7906 134.817 12.358V18.1516C134.817 19.1034 134.341 19.6892 133.389 19.9088C134.341 20.0919 134.817 20.6685 134.817 21.6387V27.6244C134.817 28.1735 134.634 28.6403 134.268 29.0247C133.883 29.4091 133.389 29.6013 132.784 29.6013H122.455V10.3811H132.784ZM131.466 14.0329C131.466 13.6668 131.292 13.4838 130.944 13.4838H125.806V18.3438H130.861C131.264 18.3438 131.466 18.1333 131.466 17.7122V14.0329ZM131.466 22.078C131.466 21.6753 131.264 21.4739 130.861 21.4739H125.806V26.4986H130.944C131.292 26.4986 131.466 26.3156 131.466 25.9495V22.078ZM119.216 10.9577C118.831 10.5733 118.337 10.3811 117.732 10.3811H109.436C108.85 10.3811 108.364 10.5733 107.98 10.9577C107.595 11.3238 107.403 11.7906 107.403 12.358V27.6244C107.403 28.1735 107.595 28.6403 107.98 29.0247C108.364 29.4091 108.85 29.6013 109.436 29.6013H117.732C118.337 29.6013 118.831 29.4091 119.216 29.0247C119.582 28.6403 119.765 28.1735 119.765 27.6244V12.358C119.765 11.7906 119.582 11.3238 119.216 10.9577ZM115.892 13.4838C116.24 13.4838 116.414 13.6668 116.414 14.0329V25.9495C116.414 26.3156 116.24 26.4986 115.892 26.4986H111.276C110.928 26.4986 110.754 26.3156 110.754 25.9495V14.0329C110.754 13.6668 110.928 13.4838 111.276 13.4838H115.892ZM102.18 29.6013H91.5755V10.3811H94.9271V26.4712H100.257V10.3811H103.608V26.4712H105.531V32.3471H102.18V29.6013ZM81.352 18.3987V13.4838H89.0717V10.3811H78.0004V29.6013H89.0717V26.4986H81.352V21.5288H87.1212V18.3987H81.352ZM75.2636 10.3811V29.6013H71.912V13.5113H66.033V29.6013H62.6814V10.3811H75.2636ZM59.4424 10.9577C59.0578 10.5733 58.5633 10.3811 57.9589 10.3811H49.6623C49.0763 10.3811 48.5909 10.5733 48.2063 10.9577C47.8217 11.3238 47.6294 11.7906 47.6294 12.358V27.6244C47.6294 28.1735 47.8217 28.6403 48.2063 29.0247C48.5909 29.4091 49.0763 29.6013 49.6623 29.6013H57.9589C58.5633 29.6013 59.0578 29.4091 59.4424 29.0247C59.8087 28.6403 59.9919 28.1735 59.9919 27.6244V23.7803H56.6403V25.9495C56.6403 26.3156 56.4663 26.4986 56.1183 26.4986H51.503C51.155 26.4986 50.981 26.3156 50.981 25.9495V14.0329C50.981 13.6668 51.155 13.4838 51.503 13.4838H56.1183C56.4663 13.4838 56.6403 13.6668 56.6403 14.0329V16.2021H59.9919V12.358C59.9919 11.7906 59.8087 11.3238 59.4424 10.9577Z" fill="#053628"/>
</svg>
