<svg width="52" height="64" viewBox="0 0 52 64" fill="none" xmlns="http://www.w3.org/2000/svg">
<path d="M25.6 64C38.4 51.2 51.2 39.7385 51.2 25.6C51.2 11.4615 39.7385 0 25.6 0C11.4615 0 0 11.4615 0 25.6C0 39.7385 12.8 51.2 25.6 64Z" fill="#053628"/>
<path fill-rule="evenodd" clip-rule="evenodd" d="M39 18.8311C39 18.3939 38.7583 17.99 38.3659 17.7713L31 13.6671V15.8959L36 18.6809V18.6821L26 24.254L16 18.6809L20.9987 15.8947V13.6665L13.6339 17.7713C13.2416 17.99 13 18.3939 13 18.831V27.0391L15 25.9247V20.3528L25 25.9253V37.0697L20 34.2847L18 35.3978L25.3657 39.5025C25.7582 39.7212 26.2418 39.7212 26.6343 39.5025L34 35.3978L32 34.2834L27 37.0697V25.9253L37 20.354V25.9253L39 27.0403V18.8311ZM24.0001 27.1888V35.398L22.0001 34.2836V27.5973L16.0001 24.2542V22.0248L23.366 26.129C23.7584 26.3477 24.0001 26.7516 24.0001 27.1888ZM26 20.9343L32 17.5924L34 18.7056L26.6343 22.8102C26.2418 23.0289 25.7582 23.0289 25.3657 22.8102L18 18.7056L19.9987 17.5912L26 20.9343ZM36 24.2542V22.0254L28.6341 26.129C28.2417 26.3476 28 26.7517 28 27.1889V35.398L30 34.2836V27.5973L36 24.2542Z" fill="white"/>
</svg>
