<svg width="16" height="15" viewBox="0 0 16 15" fill="none" xmlns="http://www.w3.org/2000/svg">
<path d="M7.25703 0.686398C7.4491 0.297282 7.54513 0.102724 7.67551 0.0405626C7.78894 -0.0135209 7.92072 -0.0135209 8.03415 0.0405626C8.16453 0.102724 8.26056 0.297282 8.45264 0.686398L10.2749 4.37804C10.3316 4.49291 10.3599 4.55035 10.4014 4.59495C10.438 4.63443 10.482 4.66643 10.5309 4.68915C10.5861 4.71482 10.6495 4.72408 10.7763 4.74261L14.8523 5.33839C15.2815 5.40113 15.4961 5.4325 15.5955 5.53733C15.6819 5.62854 15.7225 5.75388 15.7061 5.87845C15.6872 6.02162 15.5318 6.17295 15.221 6.47562L12.2727 9.34732C12.1808 9.43684 12.1348 9.4816 12.1052 9.53485C12.0789 9.58201 12.0621 9.63381 12.0556 9.68739C12.0482 9.7479 12.0591 9.81113 12.0808 9.93758L12.7765 13.9937C12.8498 14.4215 12.8865 14.6354 12.8176 14.7624C12.7576 14.8728 12.6509 14.9503 12.5274 14.9732C12.3853 14.9995 12.1932 14.8985 11.8091 14.6965L8.16513 12.7802C8.05159 12.7205 7.99483 12.6906 7.93502 12.6789C7.88207 12.6685 7.8276 12.6685 7.77464 12.6789C7.71484 12.6906 7.65807 12.7205 7.54453 12.7802L3.90059 14.6965C3.51641 14.8985 3.32433 14.9995 3.18229 14.9732C3.05872 14.9503 2.95209 14.8728 2.8921 14.7624C2.82315 14.6354 2.85984 14.4215 2.93321 13.9937L3.62889 9.93758C3.65058 9.81113 3.66142 9.7479 3.65408 9.68739C3.64759 9.63381 3.63074 9.58201 3.60449 9.53485C3.57484 9.4816 3.52888 9.43684 3.43697 9.34732L0.488617 6.47562C0.17787 6.17295 0.0224966 6.02162 0.00358961 5.87845C-0.0128605 5.75388 0.027779 5.62854 0.114193 5.53733C0.213514 5.4325 0.428127 5.40113 0.857354 5.33839L4.93341 4.74261C5.06017 4.72408 5.12355 4.71482 5.17875 4.68915C5.22762 4.66643 5.27162 4.63443 5.30831 4.59495C5.34974 4.55035 5.37809 4.49291 5.4348 4.37804L7.25703 0.686398Z" fill="#F79009"/>
</svg>
