<svg width="20" height="20" viewBox="0 0 20 20" fill="none" xmlns="http://www.w3.org/2000/svg">
<path d="M11.6669 17.5H8.33358M1.91178 4.84987C1.89983 3.64041 2.5519 2.511 3.60529 1.91662M18.0854 4.84987C18.0974 3.64042 17.4453 2.511 16.3919 1.91663M15.0002 6.66663C15.0002 5.34054 14.4735 4.06877 13.5358 3.13109C12.5981 2.19341 11.3263 1.66663 10.0002 1.66663C8.67417 1.66663 7.4024 2.19341 6.46471 3.13109C5.52703 4.06877 5.00025 5.34054 5.00025 6.66663C5.00025 9.24178 4.35064 11.0049 3.62497 12.1711C3.01285 13.1549 2.7068 13.6467 2.71802 13.7839C2.73045 13.9359 2.76263 13.9938 2.88506 14.0846C2.99563 14.1666 3.49407 14.1666 4.49096 14.1666H15.5095C16.5064 14.1666 17.0049 14.1666 17.1154 14.0846C17.2379 13.9938 17.2701 13.9359 17.2825 13.7839C17.2937 13.6467 16.9876 13.1549 16.3755 12.1711C15.6499 11.0049 15.0002 9.24178 15.0002 6.66663Z" stroke="#535862" stroke-width="1.66667" stroke-linecap="round" stroke-linejoin="round"/>
</svg>
