<svg width="20" height="20" viewBox="0 0 20 20" fill="none" xmlns="http://www.w3.org/2000/svg">
<path d="M13.3335 3.33329C14.1085 3.33329 14.496 3.33329 14.8139 3.41848C15.6766 3.64965 16.3505 4.32352 16.5816 5.18625C16.6668 5.50416 16.6668 5.89165 16.6668 6.66663V14.3333C16.6668 15.7334 16.6668 16.4335 16.3943 16.9683C16.1547 17.4387 15.7722 17.8211 15.3018 18.0608C14.767 18.3333 14.067 18.3333 12.6668 18.3333H7.3335C5.93336 18.3333 5.2333 18.3333 4.69852 18.0608C4.22811 17.8211 3.84566 17.4387 3.60598 16.9683C3.3335 16.4335 3.3335 15.7334 3.3335 14.3333V6.66663C3.3335 5.89165 3.3335 5.50416 3.41868 5.18625C3.64985 4.32352 4.32372 3.64965 5.18645 3.41848C5.50436 3.33329 5.89185 3.33329 6.66683 3.33329M8.00016 4.99996H12.0002C12.4669 4.99996 12.7002 4.99996 12.8785 4.90913C13.0353 4.82924 13.1628 4.70175 13.2427 4.54495C13.3335 4.36669 13.3335 4.13334 13.3335 3.66663V2.99996C13.3335 2.53325 13.3335 2.29989 13.2427 2.12163C13.1628 1.96483 13.0353 1.83735 12.8785 1.75745C12.7002 1.66663 12.4669 1.66663 12.0002 1.66663H8.00016C7.53345 1.66663 7.3001 1.66663 7.12184 1.75745C6.96504 1.83735 6.83755 1.96483 6.75766 2.12163C6.66683 2.29989 6.66683 2.53325 6.66683 2.99996V3.66663C6.66683 4.13334 6.66683 4.36669 6.75766 4.54495C6.83755 4.70175 6.96504 4.82924 7.12184 4.90913C7.3001 4.99996 7.53345 4.99996 8.00016 4.99996Z" stroke="#535862" stroke-width="1.66667" stroke-linecap="round" stroke-linejoin="round"/>
</svg>
