<svg width="20" height="20" viewBox="0 0 20 20" fill="none" xmlns="http://www.w3.org/2000/svg">
<g clip-path="url(#clip0_15375_26769)">
<path d="M7.49984 7.49996H7.50817M12.4998 12.5H12.5082M13.3332 6.66663L6.6665 13.3333M6.11131 3.18221C6.78117 3.12875 7.4171 2.86534 7.92856 2.42948C9.12211 1.41234 10.8776 1.41234 12.0711 2.42948C12.5826 2.86534 13.2185 3.12875 13.8884 3.18221C15.4516 3.30695 16.6928 4.54825 16.8176 6.11143C16.871 6.78129 17.1345 7.41722 17.5703 7.92868C18.5875 9.12223 18.5875 10.8777 17.5703 12.0712C17.1345 12.5827 16.871 13.2186 16.8176 13.8885C16.6928 15.4517 15.4516 16.693 13.8884 16.8177C13.2185 16.8712 12.5826 17.1346 12.0711 17.5704C10.8776 18.5876 9.12211 18.5876 7.92856 17.5704C7.4171 17.1346 6.78117 16.8712 6.11131 16.8177C4.54812 16.693 3.30683 15.4517 3.18208 13.8885C3.12863 13.2186 2.86522 12.5827 2.42935 12.0712C1.41222 10.8777 1.41222 9.12223 2.42935 7.92868C2.86522 7.41722 3.12863 6.78129 3.18208 6.11143C3.30683 4.54825 4.54812 3.30695 6.11131 3.18221ZM7.9165 7.49996C7.9165 7.73008 7.72996 7.91663 7.49984 7.91663C7.26972 7.91663 7.08317 7.73008 7.08317 7.49996C7.08317 7.26984 7.26972 7.08329 7.49984 7.08329C7.72996 7.08329 7.9165 7.26984 7.9165 7.49996ZM12.9165 12.5C12.9165 12.7301 12.73 12.9166 12.4998 12.9166C12.2697 12.9166 12.0832 12.7301 12.0832 12.5C12.0832 12.2698 12.2697 12.0833 12.4998 12.0833C12.73 12.0833 12.9165 12.2698 12.9165 12.5Z" stroke="#535862" stroke-width="1.66667" stroke-linecap="round" stroke-linejoin="round"/>
</g>
<defs>
<clipPath id="clip0_15375_26769">
<rect width="20" height="20" fill="white"/>
</clipPath>
</defs>
</svg>
