<svg width="24" height="30" viewBox="0 0 24 30" fill="none" xmlns="http://www.w3.org/2000/svg">
<path d="M8.00041 13.9093L10.6671 16.576L16.6671 10.576M22.6671 14.576C22.6671 21.1206 15.5285 25.8805 12.9311 27.3958C12.6359 27.568 12.4883 27.6541 12.28 27.6988C12.1183 27.7335 11.8825 27.7335 11.7208 27.6988C11.5125 27.6541 11.3649 27.568 11.0698 27.3958C8.47236 25.8805 1.33374 21.1206 1.33374 14.576V8.19945C1.33374 7.13343 1.33374 6.60042 1.50809 6.14225C1.66211 5.7375 1.91238 5.37635 2.23728 5.09002C2.60507 4.7659 3.10414 4.57875 4.10228 4.20444L11.2513 1.52354C11.5285 1.4196 11.6671 1.36762 11.8097 1.34702C11.9362 1.32874 12.0646 1.32874 12.1911 1.34702C12.3337 1.36762 12.4723 1.4196 12.7495 1.52354L19.8985 4.20444C20.8967 4.57875 21.3957 4.7659 21.7635 5.09002C22.0884 5.37635 22.3387 5.7375 22.4927 6.14225C22.6671 6.60042 22.6671 7.13343 22.6671 8.19945V14.576Z" stroke="#D3B579" stroke-width="2.66667" stroke-linecap="round" stroke-linejoin="round"/>
</svg>
