<svg width="27" height="22" viewBox="0 0 27 22" fill="none" xmlns="http://www.w3.org/2000/svg">
<path d="M25.3333 10.6666L9.33325 10.6666M25.3333 2.66665L9.33325 2.66665M25.3333 18.6666L9.33325 18.6666M3.99992 10.6666C3.99992 11.403 3.40296 12 2.66659 12C1.93021 12 1.33325 11.403 1.33325 10.6666C1.33325 9.93027 1.93021 9.33331 2.66659 9.33331C3.40296 9.33331 3.99992 9.93027 3.99992 10.6666ZM3.99992 2.66665C3.99992 3.40303 3.40296 3.99998 2.66659 3.99998C1.93021 3.99998 1.33325 3.40303 1.33325 2.66665C1.33325 1.93027 1.93021 1.33331 2.66659 1.33331C3.40296 1.33331 3.99992 1.93027 3.99992 2.66665ZM3.99992 18.6666C3.99992 19.403 3.40296 20 2.66659 20C1.93021 20 1.33325 19.403 1.33325 18.6666C1.33325 17.9303 1.93021 17.3333 2.66659 17.3333C3.40296 17.3333 3.99992 17.9303 3.99992 18.6666Z" stroke="#D3B579" stroke-width="2.66667" stroke-linecap="round" stroke-linejoin="round"/>
</svg>
