<svg width="30" height="30" viewBox="0 0 30 30" fill="none" xmlns="http://www.w3.org/2000/svg">
<path d="M10.6666 14.6666L13.3333 17.3333L19.3333 11.3333M22.5348 5.33132C22.8094 5.99536 23.3364 6.52318 24 6.79874L26.3269 7.76262C26.991 8.03769 27.5186 8.5653 27.7936 9.22939C28.0687 9.89348 28.0687 10.6396 27.7936 11.3037L26.8305 13.6291C26.5553 14.2934 26.5549 15.0403 26.8313 15.7044L27.7928 18.029C27.9292 18.358 27.9994 18.7105 27.9995 19.0666C27.9995 19.4226 27.9294 19.7752 27.7932 20.1042C27.6569 20.4331 27.4572 20.732 27.2054 20.9838C26.9536 21.2355 26.6546 21.4351 26.3256 21.5713L24.0004 22.5345C23.3364 22.809 22.8086 23.3361 22.533 23.9997L21.5692 26.3267C21.2941 26.9908 20.7665 27.5184 20.1025 27.7935C19.4384 28.0685 18.6923 28.0685 18.0282 27.7935L15.703 26.8303C15.0389 26.5559 14.293 26.5564 13.6294 26.8318L11.3024 27.7943C10.6387 28.0688 9.89327 28.0685 9.22974 27.7937C8.56622 27.5188 8.03892 26.9918 7.76367 26.3285L6.79954 24.0008C6.52499 23.3367 5.99798 22.8089 5.33438 22.5333L3.00747 21.5695C2.3437 21.2945 1.81626 20.7672 1.54109 20.1035C1.26593 19.4398 1.26556 18.694 1.54006 18.03L2.5032 15.7047C2.77759 15.0406 2.77703 14.2947 2.50165 13.631L1.53988 11.3024C1.40352 10.9734 1.33331 10.6209 1.33325 10.2648C1.33319 9.90876 1.4033 9.55618 1.53955 9.22722C1.6758 8.89827 1.87554 8.59938 2.12734 8.34765C2.37915 8.09592 2.67808 7.89627 3.00707 7.76012L5.33231 6.79694C5.99575 6.52261 6.52323 5.99625 6.79899 5.33339L7.76283 3.00639C8.03789 2.34231 8.56549 1.81469 9.22955 1.53962C9.89361 1.26454 10.6397 1.26454 11.3038 1.53962L13.629 2.5028C14.2931 2.7772 15.039 2.77664 15.7027 2.50124L18.0305 1.54111C18.6945 1.26619 19.4405 1.26625 20.1044 1.54127C20.7684 1.81629 21.2959 2.34375 21.571 3.00766L22.5351 5.33535L22.5348 5.33132Z" stroke="#D3B579" stroke-width="2.66667" stroke-linecap="round" stroke-linejoin="round"/>
</svg>
