<svg width="32" height="32" viewBox="0 0 32 32" fill="none" xmlns="http://www.w3.org/2000/svg">
<path d="M9.59985 2H24.8799C26.2307 2 27.5262 2.53662 28.4814 3.4918C29.4366 4.44699 29.9732 5.7425 29.9732 7.09333C29.9732 8.44417 29.4366 9.73968 28.4814 10.6949C27.5262 11.65 26.2307 12.1867 24.8799 12.1867H9.59985V2Z" stroke="#D3B579" stroke-width="2" stroke-miterlimit="10"/>
<path d="M0.693359 7.09332H10.88" stroke="#D3B579" stroke-width="2" stroke-miterlimit="10"/>
<path d="M9.59985 12.1867H14.6665V17.3334C14.6665 18.0088 14.3982 18.6565 13.9206 19.1341C13.443 19.6117 12.7953 19.88 12.1199 19.88C11.4491 19.873 10.8081 19.6016 10.3363 19.1248C9.86446 18.6479 9.59982 18.0042 9.59985 17.3334V12.1867Z" stroke="#D3B579" stroke-width="2" stroke-miterlimit="10"/>
<path d="M21.0664 24.9067H27.4264C28.1019 24.9067 28.7496 25.175 29.2272 25.6526C29.7048 26.1302 29.9731 26.7779 29.9731 27.4533V30H18.5198V27.4533C18.5198 26.7779 18.7881 26.1302 19.2657 25.6526C19.7433 25.175 20.391 24.9067 21.0664 24.9067Z" stroke="#D3B579" stroke-width="2" stroke-miterlimit="10"/>
<path d="M28.6935 24.9067H22.3335L19.7869 12.1867H26.1469L28.6935 24.9067Z" stroke="#D3B579" stroke-width="2" stroke-miterlimit="10"/>
<path d="M23.5999 2V5.81333" stroke="#D3B579" stroke-width="2" stroke-miterlimit="10"/>
<path d="M18.5198 2V5.81333" stroke="#D3B579" stroke-width="2" stroke-miterlimit="10"/>
</svg>
